{
  "accessors": [
    {
      "bufferView": 2,
      "componentType": 5126,
      "count": 526,
      "max": [
        26.75432014465332,
        25.860443115234375,
        25.447908401489258
      ],
      "min": [
        -27.581872940063477,
        -27.010704040527344,
        -24.719051361083984
      ],
      "type": "VEC3"
    },
    {
      "bufferView": 2,
      "byteOffset": 6312,
      "componentType": 5126,
      "count": 526,
      "max": [
        0.9822462797164917,
        0.9920860528945923,
        0.9341718554496765
      ],
      "min": [
        -0.9822462201118469,
        -0.9988839626312256,
        -0.9341719746589661
      ],
      "type": "VEC3"
    },
    {
      "bufferView": 1,
      "componentType": 5126,
      "count": 526,
      "max": [
        1.0,
        0.47238200902938843
      ],
      "min": [
        0.0,
        0.0
      ],
      "type": "VEC2"
    },
    {
      "bufferView": 0,
      "componentType": 5125,
      "count": 1074,
      "type": "SCALAR"
    },
    {
      "bufferView": 2,
      "byteOffset": 12624,
      "componentType": 5126,
      "count": 688,
      "max": [
        37.66625213623047,
        31.285608291625977,
        37.694854736328125
      ],
      "min": [
        -40.259647369384766,
        -32.75876998901367,
        -35.43769836425781
      ],
      "type": "VEC3"
    },
    {
      "bufferView": 2,
      "byteOffset": 20880,
      "componentType": 5126,
      "count": 688,
      "max": [
        0.9822463393211365,
        1.0,
        0.9341722130775452
      ],
      "min": [
        -0.9822463989257813,
        -0.9999918341636658,
        -0.9341718554496765
      ],
      "type": "VEC3"
    },
    {
      "bufferView": 1,
      "byteOffset": 4208,
      "componentType": 5126,
      "count": 688,
      "max": [
        1.0,
        0.47238200902938843
      ],
      "min": [
        0.0,
        0.0
      ],
      "type": "VEC2"
    },
    {
      "bufferView": 0,
      "byteOffset": 4296,
      "componentType": 5125,
      "count": 1146,
      "type": "SCALAR"
    }
  ],
  "asset": {
    "extras": {
      "author": "BlurryGames (https://sketchfab.com/BlurryGames)",
      "license": "CC-BY-4.0 (http://creativecommons.org/licenses/by/4.0/)",
      "source": "https://sketchfab.com/3d-models/space-raw-material-9b0e190b611049bb9908a575e5452cef",
      "title": "Space Raw Material"
    },
    "generator": "Sketchfab-15.42.0",
    "version": "2.0"
  },
  "bufferViews": [
    {
      "buffer": 0,
      "byteLength": 8880,
      "name": "floatBufferViews",
      "target": 34963
    },
    {
      "buffer": 0,
      "byteLength": 9712,
      "byteOffset": 8880,
      "byteStride": 8,
      "name": "floatBufferViews",
      "target": 34962
    },
    {
      "buffer": 0,
      "byteLength": 29136,
      "byteOffset": 18592,
      "byteStride": 12,
      "name": "floatBufferViews",
      "target": 34962
    }
  ],
  "buffers": [
    {
      "byteLength": 47728,
      "uri": "scene.bin"
    }
  ],
  "extensionsUsed": [
    "KHR_materials_specular",
    "KHR_materials_emissive_strength"
  ],
  "materials": [
    {
      "doubleSided": true,
      "extensions": {
        "KHR_materials_specular": {
          "specularColorFactor": [
            1.0,
            1.0,
            1.0
          ],
          "specularFactor": 1.0
        }
      },
      "name": "AsteroidBody",
      "pbrMetallicRoughness": {
        "baseColorFactor": [
          0.0677987,
          0.0677987,
          0.0677987,
          1.0
        ],
        "metallicFactor": 0.75,
        "roughnessFactor": 0.3
      }
    },
    {
      "doubleSided": true,
      "emissiveFactor": [
        0.00030352698354881946,
        0.0,
        0.7991027380144088
      ],
      "extensions": {
        "KHR_materials_emissive_strength": {
          "emissiveStrength": 8.0
        },
        "KHR_materials_specular": {
          "specularColorFactor": [
            1.0,
            1.0,
            1.0
          ],
          "specularFactor": 0.0
        }
      },
      "name": "PowerUp",
      "pbrMetallicRoughness": {
        "baseColorFactor": [
          0.0003799909999999861,
          0.0,
          0.7999999999999999,
          1.0
        ],
        "metallicFactor": 0.0,
        "roughnessFactor": 0.0
      }
    }
  ],
  "meshes": [
    {
      "name": "PowerUp_AsteroidBody_0",
      "primitives": [
        {
          "attributes": {
            "NORMAL": 1,
            "POSITION": 0,
            "TEXCOORD_0": 2
          },
          "indices": 3,
          "material": 0,
          "mode": 4
        }
      ]
    },
    {
      "name": "PowerUp_PowerUp_0",
      "primitives": [
        {
          "attributes": {
            "NORMAL": 5,
            "POSITION": 4,
            "TEXCOORD_0": 6
          },
          "indices": 7,
          "material": 1,
          "mode": 4
        }
      ]
    }
  ],
  "nodes": [
    {
      "children": [
        1
      ],
      "matrix": [
        5.0,
        0.0,
        0.0,
        0.0,
        0.0,
        1.1102230246251565e-15,
        -5.0,
        0.0,
        0.0,
        5.0,
        1.1102230246251565e-15,
        0.0,
        0.0,
        0.0,
        0.0,
        1.0
      ],
      "name": "Sketchfab_model"
    },
    {
      "children": [
        2
      ],
      "matrix": [
        0.009999999776482582,
        0.0,
        0.0,
        0.0,
        0.0,
        0.0,
        0.009999999776482582,
        0.0,
        0.0,
        -0.009999999776482582,
        0.0,
        0.0,
        0.0,
        0.0,
        0.0,
        1.0
      ],
      "name": "3d8ec48057a446d9bbc4a3b205e666d2.fbx"
    },
    {
      "children": [
        3
      ],
      "name": "RootNode"
    },
    {
      "children": [
        4,
        5
      ],
      "name": "PowerUp"
    },
    {
      "mesh": 0,
      "name": "PowerUp_AsteroidBody_0"
    },
    {
      "mesh": 1,
      "name": "PowerUp_PowerUp_0"
    }
  ],
  "scene": 0,
  "scenes": [
    {
      "name": "Sketchfab_Scene",
      "nodes": [
        0
      ]
    }
  ]
}
