{
  "accessors": [
    {
      "bufferView": 2,
      "componentType": 5126,
      "count": 2422,
      "max": [
        0.1207231655716896,
        0.04977437108755112,
        0.18129515647888184
      ],
      "min": [
        -0.12493552267551422,
        -0.0497739352285862,
        -0.1595243215560913
      ],
      "type": "VEC3"
    },
    {
      "bufferView": 2,
      "byteOffset": 29064,
      "componentType": 5126,
      "count": 2422,
      "max": [
        1.0,
        0.9980867505073547,
        0.9983121156692505
      ],
      "min": [
        -1.0,
        -0.9979053139686584,
        -1.0
      ],
      "type": "VEC3"
    },
    {
      "bufferView": 1,
      "componentType": 5126,
      "count": 2422,
      "max": [
        0.9703810214996338,
        0.9833385348320007
      ],
      "min": [
        0.012942060828208923,
        0.03816691040992737
      ],
      "type": "VEC2"
    },
    {
      "bufferView": 0,
      "componentType": 5125,
      "count": 9486,
      "type": "SCALAR"
    }
  ],
  "asset": {
    "extras": {
      "author": "jkvarel (https://sketchfab.com/jkvarel1701)",
      "license": "CC-BY-4.0 (http://creativecommons.org/licenses/by/4.0/)",
      "source": "https://sketchfab.com/3d-models/jerry-can-823ca2ae76b64cb083fc82ac39b09912",
      "title": "Jerry Can"
    },
    "generator": "Sketchfab-12.68.0",
    "version": "2.0"
  },
  "bufferViews": [
    {
      "buffer": 0,
      "byteLength": 37944,
      "name": "floatBufferViews",
      "target": 34963
    },
    {
      "buffer": 0,
      "byteLength": 19376,
      "byteOffset": 37944,
      "byteStride": 8,
      "name": "floatBufferViews",
      "target": 34962
    },
    {
      "buffer": 0,
      "byteLength": 58128,
      "byteOffset": 57320,
      "byteStride": 12,
      "name": "floatBufferViews",
      "target": 34962
    }
  ],
  "buffers": [
    {
      "byteLength": 115448,
      "uri": "scene.bin"
    }
  ],
  "materials": [
    {
      "doubleSided": true,
      "name": "Material.001",
      "pbrMetallicRoughness": {
        "baseColorFactor": [
          0.8,
          0.0444398,
          0.0201475,
          1.0
        ],
        "metallicFactor": 0.0,
        "roughnessFactor": 0.9545367143
      }
    }
  ],
  "meshes": [
    {
      "name": "Jerrycan_Material.001_0",
      "primitives": [
        {
          "attributes": {
            "NORMAL": 1,
            "POSITION": 0,
            "TEXCOORD_0": 2
          },
          "indices": 3,
          "material": 0,
          "mode": 4
        }
      ]
    }
  ],
  "nodes": [
    {
      "children": [
        1
      ],
      "matrix": [
        1.0,
        0.0,
        0.0,
        0.0,
        0.0,
        2.220446049250313e-16,
        -1.0,
        0.0,
        0.0,
        1.0,
        2.220446049250313e-16,
        0.0,
        0.0,
        0.0,
        0.0,
        1.0
      ],
      "name": "Sketchfab_model"
    },
    {
      "children": [
        2
      ],
      "matrix": [
        1.0,
        0.0,
        0.0,
        0.0,
        0.0,
        0.0,
        1.0,
        0.0,
        0.0,
        -1.0,
        0.0,
        0.0,
        0.0,
        0.0,
        0.0,
        1.0
      ],
      "name": "jerrycan.fbx"
    },
    {
      "children": [
        3
      ],
      "name": "RootNode"
    },
    {
      "children": [
        4
      ],
      "matrix": [
        100.0,
        0.0,
        0.0,
        0.0,
        0.0,
        -1.629206793918314e-05,
        -99.99999999999868,
        0.0,
        0.0,
        99.99999999999868,
        -1.629206793918314e-05,
        0.0,
        0.0,
        0.0,
        0.0,
        1.0
      ],
      "name": "Jerrycan"
    },
    {
      "mesh": 0,
      "name": "Jerrycan_Material.001_0"
    }
  ],
  "scene": 0,
  "scenes": [
    {
      "name": "Sketchfab_Scene",
      "nodes": [
        0
      ]
    }
  ]
}
